<svg xmlns="http://www.w3.org/2000/svg" x="0px" y="0px"
width="50" height="50"
viewBox="0 0 172 172"
style=" fill:#000000;"><g fill="none" fill-rule="nonzero" stroke="none" stroke-width="1" stroke-linecap="butt" stroke-linejoin="miter" stroke-miterlimit="10" stroke-dasharray="" stroke-dashoffset="0" font-family="none" font-weight="none" font-size="none" text-anchor="none" style="mix-blend-mode: normal"><path d="M0,172v-172h172v172z" fill="none"></path><g fill="#ffffff"><path d="M61.92,24.08c-34.185,0 -61.92,27.735 -61.92,61.92c0,34.185 27.735,61.92 61.92,61.92c4.20594,0 8.29094,-0.49719 12.255,-1.29c3.61469,0.645 7.6325,1.29 11.825,1.29c4.20594,0 8.29094,-0.49719 12.255,-1.29c3.61469,0.645 7.6325,1.29 11.825,1.29c34.185,0 61.92,-27.735 61.92,-61.92c0,-34.185 -27.735,-61.92 -61.92,-61.92c-3.96406,0 -7.94156,0.34938 -11.825,1.29c-3.96406,-0.79281 -8.04906,-1.29 -12.255,-1.29c-3.96406,0 -7.94156,0.34938 -11.825,1.29c-3.96406,-0.79281 -8.04906,-1.29 -12.255,-1.29zM61.92,30.96c3.58781,0 7.04125,0.3225 10.4275,0.9675c0.59125,0.33594 1.26313,0.48375 1.935,0.43c24.46969,5.60344 42.6775,27.42594 42.6775,53.6425c0,26.28375 -18.31531,48.11969 -42.8925,53.6425c-0.56437,0.01344 -1.11531,0.16125 -1.6125,0.43c-3.42656,0.65844 -6.90687,0.9675 -10.535,0.9675c-30.47625,0 -55.04,-24.56375 -55.04,-55.04c0,-30.47625 24.56375,-55.04 55.04,-55.04zM90.73,31.2825c1.92156,0.16125 3.82969,0.28219 5.6975,0.645c0.59125,0.33594 1.26313,0.48375 1.935,0.43c24.46969,5.60344 42.6775,27.42594 42.6775,53.6425c0,26.28375 -18.31531,48.11969 -42.8925,53.6425c-0.56437,0.01344 -1.11531,0.16125 -1.6125,0.43c-1.89469,0.36281 -3.84312,0.48375 -5.805,0.645c19.68594,-10.37375 33.11,-30.91969 33.11,-54.7175c0,-23.79781 -13.42406,-44.34375 -33.11,-54.7175zM114.81,31.2825c28.23219,2.41875 50.31,25.85375 50.31,54.7175c0,28.86375 -22.07781,52.29875 -50.31,54.7175c19.68594,-10.37375 33.11,-30.91969 33.11,-54.7175c0,-23.79781 -13.42406,-44.34375 -33.11,-54.7175zM58.48,48.16v7.525c-5.50937,0.68531 -15.48,5.50938 -15.48,17.2c0,22.01063 32.035,10.68281 32.035,27.1975c0,5.50938 -2.44562,10.6425 -13.115,10.6425c-10.66937,0 -13.76,-8.21031 -13.76,-12.685h-6.88c1.03469,14.79469 11.35469,18.20781 17.2,19.2425v6.5575h6.88v-6.5575c5.16,-0.34937 17.2,-4.085 17.2,-17.845c0,-11.35469 -9.32562,-14.48562 -18.275,-16.555c-7.22937,-1.72 -13.76,-3.41312 -13.76,-10.6425c0,-3.09062 1.3975,-9.9975 11.7175,-9.9975c7.22938,0 10.68281,4.48813 11.7175,9.9975h6.88c-2.06937,-7.56531 -5.50937,-14.405 -15.48,-16.125v-7.955z"></path></g></g></svg>