<svg xmlns="http://www.w3.org/2000/svg" x="0px" y="0px"
width="50" height="50"
viewBox="0 0 172 172"
style=" fill:#000000;"><g fill="none" fill-rule="nonzero" stroke="none" stroke-width="1" stroke-linecap="butt" stroke-linejoin="miter" stroke-miterlimit="10" stroke-dasharray="" stroke-dashoffset="0" font-family="none" font-weight="none" font-size="none" text-anchor="none" style="mix-blend-mode: normal"><path d="M0,172v-172h172v172z" fill="none"></path><g fill="#ffffff"><path d="M86,0c-8.43875,0 -15.56062,4.66281 -26.1225,10.105c-10.56187,5.44219 -24.73844,12.01313 -46.87,16.8775l-2.6875,0.645v2.6875c0,52.70188 18.47656,87.92156 36.98,109.7575c18.50344,21.83594 37.3025,30.53 37.3025,30.53l1.505,0.7525l1.505,-0.7525c0,0 74.0675,-38.27 74.0675,-140.2875v-2.6875l-2.6875,-0.645c-22.13156,-4.86437 -36.30812,-11.43531 -46.87,-16.8775c-10.56187,-5.44219 -17.68375,-10.105 -26.1225,-10.105zM86,6.88c5.65719,0 12.21469,3.80281 23.005,9.3525c10.25281,5.2675 24.67125,11.73094 45.58,16.6625c-1.26312,93.28313 -64.27156,128.27438 -68.6925,130.6125c-2.13656,-1.03469 -17.02531,-8.47906 -33.4325,-27.8425c-17.29406,-20.41156 -34.41344,-53.23937 -35.045,-102.77c20.90875,-4.93156 35.32719,-11.395 45.58,-16.6625c10.79031,-5.54969 17.34781,-9.3525 23.005,-9.3525zM112.445,50.31l-1.8275,2.9025l-27.95,43.43l-18.49,-16.6625l-2.4725,-2.2575l-4.6225,5.0525l2.58,2.365l21.285,19.35l3.01,2.6875l2.2575,-3.44l30.2075,-46.87l1.8275,-2.9025z"></path></g></g></svg>